<svg width="295" height="202" viewBox="0 0 295 202" fill="none" xmlns="http://www.w3.org/2000/svg">
<g clip-path="url(#clip0_365_29)">
<path d="M277.38 2.32134C275.494 3.34123 274.01 4.80291 272.954 6.71328C271.899 8.62192 271.367 10.6117 271.367 12.6791C271.367 14.7465 271.887 16.6983 272.931 18.5879C273.977 20.481 275.44 21.9496 277.315 22.9937C279.177 24.0377 281.151 24.5606 283.187 24.5606C285.223 24.5606 287.197 24.0377 289.075 22.9937C290.949 21.9496 292.399 20.481 293.443 18.5879C294.479 16.6983 295 14.7292 295 12.6791C295 10.6289 294.469 8.62192 293.419 6.71328C292.364 4.80119 290.893 3.33951 288.998 2.32134C287.113 1.29108 285.172 0.780273 283.187 0.780273C281.203 0.780273 279.277 1.28936 277.382 2.32134H277.38ZM278.298 21.2766C276.725 20.3999 275.504 19.1781 274.634 17.6025C273.763 16.0321 273.327 14.3944 273.327 12.6808C273.327 10.9672 273.772 9.30185 274.657 7.71247C275.538 6.11618 276.771 4.89438 278.349 4.03842C279.92 3.17556 281.532 2.74759 283.187 2.74759C284.842 2.74759 286.458 3.17556 288.029 4.03842C289.608 4.89438 290.84 6.11618 291.723 7.71247C292.604 9.30185 293.04 10.9568 293.04 12.6808C293.04 14.4048 292.604 16.0321 291.744 17.6025C290.872 19.1781 289.665 20.3999 288.092 21.2766C286.521 22.1515 284.889 22.5933 283.187 22.5933C281.486 22.5933 279.855 22.1515 278.299 21.2766H278.298ZM278.01 6.45269V19.254H280.061V13.8129H281.263C281.982 13.8129 282.536 13.9613 282.904 14.2546C283.45 14.6602 284.168 15.6525 285.055 17.2367L286.185 19.2558H288.692L287.134 16.75C286.391 15.5593 285.773 14.7171 285.259 14.2132C284.988 13.9492 284.628 13.7231 284.182 13.5316C285.269 13.4505 286.153 13.0587 286.818 12.3702C287.483 11.673 287.809 10.8619 287.809 9.92138C287.809 9.26043 287.614 8.6409 287.219 8.04725C286.818 7.46051 286.285 7.04462 285.617 6.81164C284.957 6.57177 283.863 6.45442 282.381 6.45442H278.01V6.45269ZM280.061 8.18704H282.395C283.393 8.18704 284.084 8.25952 284.455 8.4062C284.825 8.55807 285.106 8.77896 285.326 9.07405C285.535 9.37951 285.635 9.71775 285.635 10.0974C285.635 10.6824 285.412 11.1535 284.99 11.5159C284.552 11.8732 283.748 12.0492 282.547 12.0492H280.062V8.18876L280.061 8.18704Z" fill="white"/>
<path fill-rule="evenodd" clip-rule="evenodd" d="M212.989 0C175.856 0 144.552 25.1005 134.918 59.3577C128.657 53.7508 121.526 49.1052 113.755 45.6538L158.658 0.472846H43.332V30.6539H89.4665L81.4333 38.7371L55.754 64.5745H94.9512L94.9118 64.6142C112.191 68.9595 126.352 81.2259 133.365 97.3562C135.292 101.79 136.68 106.515 137.443 111.448C142.149 123.515 149.625 134.176 159.087 142.642C173.418 155.473 192.298 163.266 212.989 163.266C257.794 163.266 294.117 126.719 294.117 81.6332C294.117 36.5472 257.794 0 212.989 0ZM212.989 139.101C189.582 139.101 169.463 124.933 160.642 104.654C158.711 100.214 157.322 95.4837 156.56 90.5448C156.56 90.543 156.559 90.543 156.559 90.5413C156.109 87.6387 155.876 84.6635 155.876 81.6332C155.876 49.8956 181.446 24.1669 212.989 24.1669C244.532 24.1669 270.099 49.8956 270.099 81.6332C270.099 113.371 244.53 139.101 212.989 139.101Z" fill="url(#paint0_linear_365_29)"/>
<path fill-rule="evenodd" clip-rule="evenodd" d="M159.085 142.642C149.45 176.9 118.145 202 81.0149 202C37.6485 202 2.22955 167.762 0 124.685H24.0637C26.2572 154.405 50.9177 177.833 81.0149 177.833C111.112 177.833 138.126 152.105 138.126 120.367C138.126 117.333 137.892 114.356 137.441 111.45C142.147 123.515 149.623 134.176 159.085 142.642Z" fill="url(#paint1_linear_365_29)"/>
<path fill-rule="evenodd" clip-rule="evenodd" d="M212.887 24.1669C181.345 24.1669 155.776 49.8956 155.776 81.6332C155.776 84.667 156.009 87.6438 156.46 90.5499C151.754 78.4855 144.278 67.824 134.816 59.3577C144.451 25.1005 175.756 0 212.887 0" fill="url(#paint2_linear_365_29)"/>
<path d="M167.415 188.481H171.419C170.822 190.072 169.874 191.273 168.574 192.086C167.274 192.899 165.869 193.306 164.358 193.306C162.023 193.306 160.143 192.63 158.719 191.279C157.296 189.927 156.586 188.084 156.586 185.751C156.586 183.418 157.318 181.722 158.786 180.343C160.253 178.964 162.048 178.275 164.175 178.275C166.511 178.275 168.346 179.08 169.682 180.688C171.016 182.296 171.613 184.383 171.474 186.945H160.961C161.031 187.9 161.378 188.633 162.002 189.146C162.625 189.658 163.367 189.915 164.228 189.915C165.791 189.915 166.854 189.437 167.416 188.483L167.415 188.481ZM164.173 181.615C163.348 181.615 162.64 181.836 162.052 182.277C161.464 182.719 161.117 183.39 161.011 184.293H167.149C167.113 183.427 166.823 182.764 166.279 182.305C165.734 181.846 165.032 181.616 164.172 181.616L164.173 181.615Z" fill="white"/>
<path d="M186.541 182.886H182.483C182.237 181.968 181.316 181.508 179.717 181.508C178.206 181.508 177.452 181.861 177.452 182.569C177.452 182.905 177.587 183.17 177.86 183.365C178.132 183.56 178.575 183.718 179.191 183.843L181.825 184.321C183.598 184.657 184.881 185.13 185.672 185.739C186.462 186.348 186.857 187.263 186.857 188.483C186.857 190.038 186.224 191.232 184.96 192.062C183.696 192.892 182.044 193.308 180.007 193.308C178.091 193.308 176.515 192.884 175.277 192.036C174.039 191.189 173.296 189.952 173.051 188.324H177.081C177.433 189.527 178.426 190.128 180.058 190.128C180.866 190.128 181.508 190.017 181.981 189.796C182.456 189.575 182.693 189.261 182.693 188.856C182.693 188.521 182.526 188.25 182.192 188.046C181.857 187.843 181.286 187.672 180.479 187.529L177.949 187.104C176.508 186.875 175.38 186.393 174.563 185.66C173.747 184.926 173.339 183.95 173.339 182.729C173.339 181.368 173.961 180.294 175.21 179.508C176.457 178.721 177.994 178.327 179.82 178.327C181.647 178.327 183.07 178.703 184.3 179.454C185.529 180.205 186.275 181.349 186.54 182.888L186.541 182.886Z" fill="white"/>
<path d="M189.914 178.698V174.802H194.262V178.698H197.371V181.8H194.262V188.188C194.262 188.842 194.388 189.275 194.644 189.488C194.898 189.7 195.395 189.805 196.133 189.805H197.371V192.96H194.605C192.795 192.96 191.562 192.694 190.903 192.164C190.245 191.634 189.916 190.564 189.916 188.956V181.798H187.676V178.697H189.916L189.914 178.698Z" fill="white"/>
<path d="M204.8 192.961H199.898V188.241H204.8V192.961Z" fill="white"/>
<path d="M220.687 192.961H216.367V180.049H212.02V176.841C213.584 176.807 214.76 176.549 215.551 176.071C216.341 175.593 216.955 174.817 217.394 173.738H220.687V192.959V192.961Z" fill="white"/>
<path d="M230.728 190.124C231.8 190.124 232.651 189.722 233.283 188.918C233.916 188.114 234.215 186.933 234.179 185.378C233.124 186.315 231.745 186.783 230.042 186.783C228.339 186.783 226.739 186.146 225.458 184.874C224.175 183.603 223.535 182.003 223.535 180.075C223.535 178.148 224.228 176.448 225.617 175.236C227.005 174.027 228.805 173.421 231.018 173.421C233.601 173.421 235.527 174.292 236.801 176.032C238.074 177.773 238.712 180.067 238.712 182.912C238.712 184.362 238.554 185.696 238.238 186.916C237.923 188.136 237.448 189.232 236.815 190.203C236.182 191.175 235.326 191.936 234.246 192.483C233.165 193.03 231.922 193.305 230.517 193.305C228.409 193.305 226.78 192.787 225.629 191.753C224.478 190.719 223.851 189.389 223.746 187.763H228.015C228.19 189.337 229.095 190.122 230.728 190.122V190.124ZM234.101 180.077C234.101 179.035 233.825 178.205 233.271 177.585C232.717 176.967 231.968 176.657 231.018 176.657C230.068 176.657 229.327 176.962 228.792 177.571C228.257 178.18 227.987 179.016 227.987 180.077C227.987 181.138 228.26 181.929 228.804 182.555C229.347 183.183 230.085 183.496 231.016 183.496C231.947 183.496 232.716 183.19 233.27 182.581C233.824 181.972 234.1 181.137 234.1 180.075L234.101 180.077Z" fill="white"/>
<path d="M247.88 190.124C248.952 190.124 249.803 189.722 250.436 188.918C251.069 188.114 251.367 186.933 251.331 185.378C250.276 186.315 248.897 186.783 247.194 186.783C245.491 186.783 243.891 186.146 242.61 184.874C241.327 183.603 240.688 182.003 240.688 180.075C240.688 178.148 241.38 176.448 242.77 175.236C244.157 174.027 245.958 173.421 248.17 173.421C250.753 173.421 252.679 174.292 253.953 176.032C255.226 177.773 255.864 180.067 255.864 182.912C255.864 184.362 255.706 185.696 255.391 186.916C255.075 188.136 254.6 189.232 253.967 190.203C253.334 191.175 252.478 191.936 251.398 192.483C250.317 193.03 249.074 193.305 247.669 193.305C245.562 193.305 243.932 192.787 242.782 191.753C241.631 190.719 241.003 189.389 240.898 187.763H245.167C245.342 189.337 246.248 190.122 247.88 190.122V190.124ZM251.254 180.077C251.254 179.035 250.978 178.205 250.424 177.585C249.87 176.967 249.12 176.657 248.17 176.657C247.22 176.657 246.479 176.962 245.944 177.571C245.409 178.18 245.14 179.016 245.14 180.077C245.14 181.138 245.412 181.929 245.956 182.555C246.5 183.183 247.237 183.496 248.168 183.496C249.1 183.496 249.868 183.19 250.422 182.581C250.976 181.972 251.252 181.137 251.252 180.075L251.254 180.077Z" fill="white"/>
<path d="M265.742 190.071C266.743 190.071 267.554 189.765 268.179 189.156C268.801 188.547 269.113 187.703 269.113 186.624C269.113 185.546 268.793 184.648 268.151 184.039C267.51 183.43 266.733 183.125 265.819 183.125C264.308 183.125 263.219 183.761 262.552 185.033L258.573 184.636L259.916 173.74H272.694V177.293H263.526L263.078 180.898C264.044 180.227 265.309 179.891 266.872 179.891C268.716 179.891 270.297 180.479 271.614 181.654C272.931 182.83 273.59 184.478 273.59 186.599C273.59 188.719 272.844 190.345 271.35 191.531C269.856 192.714 268.004 193.306 265.79 193.306C263.752 193.306 262.035 192.763 260.639 191.676C259.243 190.588 258.386 189.047 258.07 187.049H262.26C262.612 189.065 263.771 190.071 265.738 190.071H265.742Z" fill="white"/>
<path d="M223.673 49.6523V87.9718C223.673 91.456 222.728 94.1447 220.836 96.043C218.945 97.9413 216.334 98.8887 213.011 98.8887C209.687 98.8887 207.03 97.9257 205.137 95.9981C203.245 94.0722 202.3 91.3956 202.3 87.9718V49.6523H183.078V87.1228C183.078 90.2101 183.675 93.7564 184.865 97.7566C185.603 100.242 186.971 102.659 188.974 105.003C190.974 107.346 193.181 109.155 195.593 110.427C198.004 111.7 201.007 112.548 204.598 112.977C208.188 113.405 211.501 113.619 214.537 113.619C219.785 113.619 224.287 112.919 228.034 111.519C230.73 110.52 233.306 108.782 235.761 106.309C238.215 103.838 240.017 100.951 241.17 97.6496C242.319 94.3483 242.893 90.84 242.893 87.1228V49.6523H223.673Z" fill="white"/>
</g>
<defs>
<linearGradient id="paint0_linear_365_29" x1="43.332" y1="81.6332" x2="294.117" y2="81.6332" gradientUnits="userSpaceOnUse">
<stop stop-color="white"/>
<stop offset="1" stop-color="white"/>
</linearGradient>
<linearGradient id="paint1_linear_365_29" x1="0" y1="156.726" x2="159.085" y2="156.726" gradientUnits="userSpaceOnUse">
<stop stop-color="white"/>
<stop offset="1" stop-color="#CACACA"/>
</linearGradient>
<linearGradient id="paint2_linear_365_29" x1="212.887" y1="45.2741" x2="134.816" y2="45.2741" gradientUnits="userSpaceOnUse">
<stop stop-color="#6C6C6C" stop-opacity="0"/>
<stop offset="1" stop-color="white"/>
</linearGradient>
<clipPath id="clip0_365_29">
<rect width="295" height="202" fill="white"/>
</clipPath>
</defs>
</svg>
